<svg xmlns="http://www.w3.org/2000/svg" viewBox="0 0 24 24">
  <rect width="24" height="24" rx="6" fill="#3A4CA8"/>
  <g fill="none" stroke-linecap="round" stroke-linejoin="round">
    <path d="M12 3.1 L12 4.9" stroke="#fff" stroke-width="1.3"/>
    <path d="M3 11 A9 6.5 0 0 1 21 11 Q19.2 12.9 17.4 11 Q15.6 12.9 13.8 11 Q12 12.9 10.2 11 Q8.4 12.9 6.6 11 Q4.8 12.9 3 11 Z" fill="#2E74E6" stroke="#fff" stroke-width="0.7"/>
    <path d="M12 11 L12 18.4 a2.1 2.1 0 0 1 -4.2 0" stroke="#fff" stroke-width="1.4"/>
    <path d="M17.6 14.4 c1.1 1.5 1.7 2.4 1.7 3.2 a1.7 1.7 0 0 1 -3.4 0 c0 -0.8 0.6 -1.7 1.7 -3.2 Z" fill="#fff"/>
  </g>
</svg>
